<mxfile host="app.diagrams.net" modified="2024-03-12T03:41:05.301Z" agent="Mozilla/5.0 (Windows NT 10.0; Win64; x64) AppleWebKit/537.36 (KHTML, like Gecko) Chrome/122.0.0.0 Safari/537.36" version="24.0.5" etag="58AVSLDR8S4fldlJF9ey" type="github">
  <diagram name="第 1 页" id="R6eUI__6Q841_Kg6jWPQ">
    <mxGraphModel>
      <root>
        <mxCell id="0" />
        <mxCell id="1" parent="0" />
      </root>
    </mxGraphModel>
  </diagram>
</mxfile>
